{
	"asset":{
		"generator":"Khronos glTF Blender I/O v3.6.27",
		"version":"2.0"
	},
	"extensionsUsed":[
		"KHR_materials_specular",
		"KHR_materials_ior"
	],
	"scene":0,
	"scenes":[
		{
			"name":"SolidMaterialScene",
			"nodes":[
				0
			]
		}
	],
	"nodes":[
		{
			"mesh":0,
			"name":"SolidModel",
			"translation":[
				0,
				0.06199979782104492,
				0
			]
		}
	],
	"materials":[
		{
			"doubleSided":true,
			"extensions":{
				"KHR_materials_specular":{
					"specularColorFactor":[
						0,
						0,
						0
					]
				},
				"KHR_materials_ior":{
					"ior":1.4500000476837158
				}
			},
			"name":"mat_test/main",
			"pbrMetallicRoughness":{
				"baseColorFactor":[
					0,
					0,
					0.5,
					1
				],
				"metallicFactor":0
			}
		}
	],
	"meshes":[
		{
			"name":"SolidModel",
			"primitives":[
				{
					"attributes":{
						"POSITION":0,
						"NORMAL":1,
						"TEXCOORD_0":2
					},
					"indices":3,
					"material":0
				}
			]
		}
	],
	"accessors":[
		{
			"bufferView":0,
			"componentType":5126,
			"count":49260,
			"max":[
				0.059743355959653854,
				0.04985768347978592,
				0.05996829643845558
			],
			"min":[
				-0.0599743090569973,
				-0.05539584159851074,
				-0.05997125804424286
			],
			"type":"VEC3"
		},
		{
			"bufferView":1,
			"componentType":5126,
			"count":49260,
			"type":"VEC3"
		},
		{
			"bufferView":2,
			"componentType":5126,
			"count":49260,
			"type":"VEC2"
		},
		{
			"bufferView":3,
			"componentType":5123,
			"count":233286,
			"type":"SCALAR"
		}
	],
	"bufferViews":[
		{
			"buffer":0,
			"byteLength":591120,
			"byteOffset":0,
			"target":34962
		},
		{
			"buffer":0,
			"byteLength":591120,
			"byteOffset":591120,
			"target":34962
		},
		{
			"buffer":0,
			"byteLength":394080,
			"byteOffset":1182240,
			"target":34962
		},
		{
			"buffer":0,
			"byteLength":466572,
			"byteOffset":1576320,
			"target":34963
		}
	],
	"buffers":[
		{
			"byteLength":2042892,
			"uri":"data:application/octet-stream;base64,"
		}
	]
}
