{
	"asset":{
		"generator":"Khronos glTF Blender I/O v3.6.27",
		"version":"2.0"
	},
	"scene":0,
	"scenes":[
		{
			"name":"SolidMaterialScene",
			"nodes":[
				0
			]
		}
	],
	"nodes":[
		{
			"mesh":0,
			"name":"TextBase.001",
			"translation":[
				0.0011119246482849121,
				0.012252569198608398,
				0.001036904752254486
			]
		}
	],
	"materials":[
		{
			"doubleSided":true,
			"name":"mat_test/white",
			"pbrMetallicRoughness":{}
		}
	],
	"meshes":[
		{
			"name":"TextBase.001",
			"primitives":[
				{
					"attributes":{
						"POSITION":0,
						"NORMAL":1,
						"TEXCOORD_0":2
					},
					"indices":3,
					"material":0
				}
			]
		}
	],
	"accessors":[
		{
			"bufferView":0,
			"componentType":5126,
			"count":5290,
			"max":[
				0.03198537975549698,
				9.999990288633853e-05,
				0.031972240656614304
			],
			"min":[
				0.00012182931823190302,
				-9.999990288633853e-05,
				-0.00045771675650030375
			],
			"type":"VEC3"
		},
		{
			"bufferView":1,
			"componentType":5126,
			"count":5290,
			"type":"VEC3"
		},
		{
			"bufferView":2,
			"componentType":5126,
			"count":5290,
			"type":"VEC2"
		},
		{
			"bufferView":3,
			"componentType":5123,
			"count":9438,
			"type":"SCALAR"
		}
	],
	"bufferViews":[
		{
			"buffer":0,
			"byteLength":63480,
			"byteOffset":0,
			"target":34962
		},
		{
			"buffer":0,
			"byteLength":63480,
			"byteOffset":63480,
			"target":34962
		},
		{
			"buffer":0,
			"byteLength":42320,
			"byteOffset":126960,
			"target":34962
		},
		{
			"buffer":0,
			"byteLength":18876,
			"byteOffset":169280,
			"target":34963
		}
	],
	"buffers":[
		{
			"byteLength":188156,
			"uri":"data:application/octet-stream;base64,"
		}
	]
}
